<svg width="15" height="15" viewBox="0 0 15 15" fill="none" xmlns="http://www.w3.org/2000/svg">
<g clip-path="url(#clip0_4_296)">
<path d="M7.5 14.0625C3.88125 14.0625 0.9375 11.1187 0.9375 7.5C0.9375 3.88125 3.88125 0.9375 7.5 0.9375C11.1187 0.9375 14.0625 3.88125 14.0625 7.5C14.0625 11.1187 11.1187 14.0625 7.5 14.0625ZM7.5 1.875C4.39688 1.875 1.875 4.39688 1.875 7.5C1.875 10.6031 4.39688 13.125 7.5 13.125C10.6031 13.125 13.125 10.6031 13.125 7.5C13.125 4.39688 10.6031 1.875 7.5 1.875Z" fill="black"/>
<path d="M10.3125 7.96875H4.6875C4.425 7.96875 4.21875 7.7625 4.21875 7.5C4.21875 7.2375 4.425 7.03125 4.6875 7.03125H10.3125C10.575 7.03125 10.7812 7.2375 10.7812 7.5C10.7812 7.7625 10.575 7.96875 10.3125 7.96875Z" fill="black"/>
</g>
<defs>
<clipPath id="clip0_4_296">
<rect width="15" height="15" fill="white"/>
</clipPath>
</defs>
</svg>
