<svg width="19" height="19" viewBox="0 0 19 19" fill="none" xmlns="http://www.w3.org/2000/svg">
<path d="M9.50004 15.96C5.92804 15.96 3.04004 13.072 3.04004 9.5C3.04004 5.928 5.92804 3.04 9.50004 3.04C13.072 3.04 15.96 5.928 15.96 9.5C15.96 13.072 13.072 15.96 9.50004 15.96ZM9.50004 3.8C6.34604 3.8 3.80004 6.346 3.80004 9.5C3.80004 12.654 6.34604 15.2 9.50004 15.2C12.654 15.2 15.2 12.654 15.2 9.5C15.2 6.346 12.654 3.8 9.50004 3.8Z" fill="black"/>
<path d="M9.61398 13.186L5.92798 9.5L9.61398 5.814L10.146 6.346L6.99198 9.5L10.146 12.654L9.61398 13.186Z" fill="black"/>
<path d="M6.45996 9.12H12.92V9.88H6.45996V9.12Z" fill="black"/>
</svg>
